<svg width="93" height="23" viewBox="0 0 93 23" fill="none" xmlns="http://www.w3.org/2000/svg">
<mask id="path-1-inside-1_361_59" fill="white">
<path d="M6.5142 18H0.078125V1.27273H6.44886C8.16951 1.27273 9.65601 1.6076 10.9084 2.27734C12.1662 2.94164 13.1354 3.89998 13.8161 5.15234C14.5021 6.39927 14.8452 7.89394 14.8452 9.63636C14.8452 11.3788 14.5049 12.8762 13.8242 14.1286C13.1436 15.3755 12.1798 16.3338 10.9329 17.0036C9.68596 17.6679 8.21307 18 6.5142 18ZM4.61932 14.1449H6.35085C7.1785 14.1449 7.88364 14.0115 8.46626 13.7447C9.05433 13.4779 9.50083 13.0178 9.80575 12.3643C10.1161 11.7109 10.2713 10.8016 10.2713 9.63636C10.2713 8.47112 10.1134 7.56179 9.79759 6.90838C9.48722 6.25497 9.02983 5.79486 8.42543 5.52805C7.82647 5.26124 7.09138 5.12784 6.22017 5.12784H4.61932V14.1449Z"/>
<path d="M17.0116 18V5.45455H21.5202V18H17.0116ZM19.2659 4.14773C18.656 4.14773 18.1333 3.94626 17.6977 3.54332C17.2621 3.14039 17.0443 2.65578 17.0443 2.08949C17.0443 1.5232 17.2621 1.03859 17.6977 0.635653C18.1333 0.232718 18.656 0.03125 19.2659 0.03125C19.8812 0.03125 20.4039 0.232718 20.8341 0.635653C21.2697 1.03859 21.4875 1.5232 21.4875 2.08949C21.4875 2.65578 21.2697 3.14039 20.8341 3.54332C20.4039 3.94626 19.8812 4.14773 19.2659 4.14773Z"/>
<path d="M29.8613 22.9659C28.6035 22.9659 27.5254 22.7862 26.627 22.4268C25.734 22.0729 25.0397 21.5829 24.5442 20.9567C24.0542 20.3359 23.7792 19.6226 23.7193 18.8168H28.0645C28.108 19.0836 28.2169 19.2987 28.3912 19.462C28.5654 19.6254 28.7886 19.7424 29.0609 19.8132C29.3386 19.8894 29.649 19.9276 29.992 19.9276C30.5746 19.9276 31.0565 19.786 31.4377 19.5028C31.8243 19.2197 32.0176 18.7079 32.0176 17.9673V15.8438H31.8869C31.7235 16.2685 31.4731 16.6306 31.1355 16.93C30.7979 17.2241 30.3922 17.45 29.9185 17.608C29.4448 17.7604 28.9248 17.8366 28.3585 17.8366C27.4655 17.8366 26.6433 17.6297 25.8919 17.2159C25.1459 16.8021 24.5469 16.146 24.095 15.2475C23.6485 14.3491 23.4252 13.1757 23.4252 11.7273C23.4252 10.2135 23.6594 8.98295 24.1277 8.03551C24.6014 7.08807 25.2112 6.39382 25.9572 5.95277C26.7086 5.51172 27.4982 5.29119 28.3258 5.29119C28.9466 5.29119 29.4911 5.40009 29.9593 5.6179C30.4276 5.83026 30.8197 6.11612 31.1355 6.4755C31.4513 6.82943 31.6909 7.21875 31.8542 7.64347H31.9522V5.45455H36.4608V17.9673C36.4608 19.0291 36.1858 19.9303 35.6358 20.6708C35.0913 21.4168 34.3236 21.9858 33.3326 22.3778C32.3416 22.7699 31.1845 22.9659 29.8613 22.9659ZM30.0247 14.6349C30.4385 14.6349 30.7924 14.5206 31.0865 14.2919C31.3859 14.0578 31.6146 13.7256 31.7726 13.2955C31.9359 12.8598 32.0176 12.3371 32.0176 11.7273C32.0176 11.1065 31.9359 10.5756 31.7726 10.1346C31.6146 9.68809 31.3859 9.34777 31.0865 9.11364C30.7924 8.87405 30.4385 8.75426 30.0247 8.75426C29.6109 8.75426 29.2569 8.87405 28.9629 9.11364C28.6743 9.34777 28.4511 9.68809 28.2931 10.1346C28.1407 10.5756 28.0645 11.1065 28.0645 11.7273C28.0645 12.348 28.1407 12.8762 28.2931 13.3118C28.4511 13.742 28.6743 14.0714 28.9629 14.3001C29.2569 14.5233 29.6109 14.6349 30.0247 14.6349Z"/>
<path d="M38.7538 18V5.45455H43.2623V18H38.7538ZM41.0081 4.14773C40.3982 4.14773 39.8755 3.94626 39.4399 3.54332C39.0043 3.14039 38.7865 2.65578 38.7865 2.08949C38.7865 1.5232 39.0043 1.03859 39.4399 0.635653C39.8755 0.232718 40.3982 0.03125 41.0081 0.03125C41.6234 0.03125 42.1461 0.232718 42.5763 0.635653C43.0119 1.03859 43.2297 1.5232 43.2297 2.08949C43.2297 2.65578 43.0119 3.14039 42.5763 3.54332C42.1461 3.94626 41.6234 4.14773 41.0081 4.14773Z"/>
<path d="M45.4941 18V1.27273H57.2555V4.93182H50.0353V7.80682H56.5368V11.4659H50.0353V18H45.4941Z"/>
<path d="M58.9911 18V5.45455H63.4996V18H58.9911ZM61.2454 4.14773C60.6355 4.14773 60.1128 3.94626 59.6772 3.54332C59.2416 3.14039 59.0238 2.65578 59.0238 2.08949C59.0238 1.5232 59.2416 1.03859 59.6772 0.635653C60.1128 0.232718 60.6355 0.03125 61.2454 0.03125C61.8607 0.03125 62.3834 0.232718 62.8136 0.635653C63.2492 1.03859 63.467 1.5232 63.467 2.08949C63.467 2.65578 63.2492 3.14039 62.8136 3.54332C62.3834 3.94626 61.8607 4.14773 61.2454 4.14773Z"/>
<path d="M70.3053 10.9432V18H65.7968V5.45455H70.0766V7.83949H70.2073C70.4796 7.04451 70.9587 6.42105 71.6448 5.96911C72.3363 5.51716 73.1422 5.29119 74.0624 5.29119C74.95 5.29119 75.7204 5.49538 76.3738 5.90376C77.0327 6.3067 77.5418 6.8621 77.9012 7.56996C78.266 8.27782 78.4457 9.08641 78.4403 9.99574V18H73.9317V10.9432C73.9372 10.3224 73.7793 9.83511 73.458 9.48118C73.1422 9.12725 72.7011 8.95028 72.1349 8.95028C71.7646 8.95028 71.4406 9.03196 71.1629 9.19531C70.8907 9.35322 70.681 9.58191 70.534 9.88139C70.387 10.1754 70.3108 10.5294 70.3053 10.9432Z"/>
<path d="M86.6773 18.2287C85.3378 18.2287 84.1834 17.9728 83.2142 17.4609C82.2504 16.9437 81.5072 16.2031 80.9845 15.2393C80.4672 14.2701 80.2085 13.1103 80.2085 11.7599C80.2085 10.464 80.4699 9.33144 80.9926 8.36222C81.5154 7.39299 82.2532 6.63885 83.2061 6.09979C84.1589 5.56072 85.2833 5.29119 86.5793 5.29119C87.5267 5.29119 88.3843 5.43821 89.1521 5.73224C89.9198 6.02628 90.576 6.45372 91.1205 7.01456C91.665 7.56996 92.0843 8.24515 92.3783 9.04013C92.6723 9.83511 92.8193 10.7308 92.8193 11.7273V12.7727H81.6134V10.2898H88.6702C88.6647 9.9304 88.5722 9.61458 88.3925 9.34233C88.2182 9.06463 87.9814 8.84955 87.6819 8.69709C87.3879 8.53918 87.053 8.46023 86.6773 8.46023C86.3125 8.46023 85.9776 8.53918 85.6727 8.69709C85.3678 8.84955 85.1227 9.06191 84.9376 9.33416C84.7579 9.60642 84.6626 9.92495 84.6517 10.2898V12.9688C84.6517 13.3717 84.7361 13.7311 84.9049 14.0469C85.0737 14.3627 85.316 14.6104 85.6318 14.7901C85.9477 14.9698 86.3288 15.0597 86.7753 15.0597C87.0857 15.0597 87.3688 15.0161 87.6247 14.929C87.8861 14.8419 88.1093 14.7166 88.2945 14.5533C88.4796 14.3845 88.6157 14.183 88.7029 13.9489H92.8193C92.6778 14.8201 92.3429 15.5769 91.8147 16.2195C91.2865 16.8565 90.5869 17.352 89.7156 17.706C88.8499 18.0544 87.8371 18.2287 86.6773 18.2287Z"/>
</mask>
<path d="M6.5142 18H0.078125V1.27273H6.44886C8.16951 1.27273 9.65601 1.6076 10.9084 2.27734C12.1662 2.94164 13.1354 3.89998 13.8161 5.15234C14.5021 6.39927 14.8452 7.89394 14.8452 9.63636C14.8452 11.3788 14.5049 12.8762 13.8242 14.1286C13.1436 15.3755 12.1798 16.3338 10.9329 17.0036C9.68596 17.6679 8.21307 18 6.5142 18ZM4.61932 14.1449H6.35085C7.1785 14.1449 7.88364 14.0115 8.46626 13.7447C9.05433 13.4779 9.50083 13.0178 9.80575 12.3643C10.1161 11.7109 10.2713 10.8016 10.2713 9.63636C10.2713 8.47112 10.1134 7.56179 9.79759 6.90838C9.48722 6.25497 9.02983 5.79486 8.42543 5.52805C7.82647 5.26124 7.09138 5.12784 6.22017 5.12784H4.61932V14.1449Z" fill="#145DA0"/>
<path d="M17.0116 18V5.45455H21.5202V18H17.0116ZM19.2659 4.14773C18.656 4.14773 18.1333 3.94626 17.6977 3.54332C17.2621 3.14039 17.0443 2.65578 17.0443 2.08949C17.0443 1.5232 17.2621 1.03859 17.6977 0.635653C18.1333 0.232718 18.656 0.03125 19.2659 0.03125C19.8812 0.03125 20.4039 0.232718 20.8341 0.635653C21.2697 1.03859 21.4875 1.5232 21.4875 2.08949C21.4875 2.65578 21.2697 3.14039 20.8341 3.54332C20.4039 3.94626 19.8812 4.14773 19.2659 4.14773Z" fill="#145DA0"/>
<path d="M29.8613 22.9659C28.6035 22.9659 27.5254 22.7862 26.627 22.4268C25.734 22.0729 25.0397 21.5829 24.5442 20.9567C24.0542 20.3359 23.7792 19.6226 23.7193 18.8168H28.0645C28.108 19.0836 28.2169 19.2987 28.3912 19.462C28.5654 19.6254 28.7886 19.7424 29.0609 19.8132C29.3386 19.8894 29.649 19.9276 29.992 19.9276C30.5746 19.9276 31.0565 19.786 31.4377 19.5028C31.8243 19.2197 32.0176 18.7079 32.0176 17.9673V15.8438H31.8869C31.7235 16.2685 31.4731 16.6306 31.1355 16.93C30.7979 17.2241 30.3922 17.45 29.9185 17.608C29.4448 17.7604 28.9248 17.8366 28.3585 17.8366C27.4655 17.8366 26.6433 17.6297 25.8919 17.2159C25.1459 16.8021 24.5469 16.146 24.095 15.2475C23.6485 14.3491 23.4252 13.1757 23.4252 11.7273C23.4252 10.2135 23.6594 8.98295 24.1277 8.03551C24.6014 7.08807 25.2112 6.39382 25.9572 5.95277C26.7086 5.51172 27.4982 5.29119 28.3258 5.29119C28.9466 5.29119 29.4911 5.40009 29.9593 5.6179C30.4276 5.83026 30.8197 6.11612 31.1355 6.4755C31.4513 6.82943 31.6909 7.21875 31.8542 7.64347H31.9522V5.45455H36.4608V17.9673C36.4608 19.0291 36.1858 19.9303 35.6358 20.6708C35.0913 21.4168 34.3236 21.9858 33.3326 22.3778C32.3416 22.7699 31.1845 22.9659 29.8613 22.9659ZM30.0247 14.6349C30.4385 14.6349 30.7924 14.5206 31.0865 14.2919C31.3859 14.0578 31.6146 13.7256 31.7726 13.2955C31.9359 12.8598 32.0176 12.3371 32.0176 11.7273C32.0176 11.1065 31.9359 10.5756 31.7726 10.1346C31.6146 9.68809 31.3859 9.34777 31.0865 9.11364C30.7924 8.87405 30.4385 8.75426 30.0247 8.75426C29.6109 8.75426 29.2569 8.87405 28.9629 9.11364C28.6743 9.34777 28.4511 9.68809 28.2931 10.1346C28.1407 10.5756 28.0645 11.1065 28.0645 11.7273C28.0645 12.348 28.1407 12.8762 28.2931 13.3118C28.4511 13.742 28.6743 14.0714 28.9629 14.3001C29.2569 14.5233 29.6109 14.6349 30.0247 14.6349Z" fill="#145DA0"/>
<path d="M38.7538 18V5.45455H43.2623V18H38.7538ZM41.0081 4.14773C40.3982 4.14773 39.8755 3.94626 39.4399 3.54332C39.0043 3.14039 38.7865 2.65578 38.7865 2.08949C38.7865 1.5232 39.0043 1.03859 39.4399 0.635653C39.8755 0.232718 40.3982 0.03125 41.0081 0.03125C41.6234 0.03125 42.1461 0.232718 42.5763 0.635653C43.0119 1.03859 43.2297 1.5232 43.2297 2.08949C43.2297 2.65578 43.0119 3.14039 42.5763 3.54332C42.1461 3.94626 41.6234 4.14773 41.0081 4.14773Z" fill="#145DA0"/>
<path d="M45.4941 18V1.27273H57.2555V4.93182H50.0353V7.80682H56.5368V11.4659H50.0353V18H45.4941Z" fill="#145DA0"/>
<path d="M58.9911 18V5.45455H63.4996V18H58.9911ZM61.2454 4.14773C60.6355 4.14773 60.1128 3.94626 59.6772 3.54332C59.2416 3.14039 59.0238 2.65578 59.0238 2.08949C59.0238 1.5232 59.2416 1.03859 59.6772 0.635653C60.1128 0.232718 60.6355 0.03125 61.2454 0.03125C61.8607 0.03125 62.3834 0.232718 62.8136 0.635653C63.2492 1.03859 63.467 1.5232 63.467 2.08949C63.467 2.65578 63.2492 3.14039 62.8136 3.54332C62.3834 3.94626 61.8607 4.14773 61.2454 4.14773Z" fill="#145DA0"/>
<path d="M70.3053 10.9432V18H65.7968V5.45455H70.0766V7.83949H70.2073C70.4796 7.04451 70.9587 6.42105 71.6448 5.96911C72.3363 5.51716 73.1422 5.29119 74.0624 5.29119C74.95 5.29119 75.7204 5.49538 76.3738 5.90376C77.0327 6.3067 77.5418 6.8621 77.9012 7.56996C78.266 8.27782 78.4457 9.08641 78.4403 9.99574V18H73.9317V10.9432C73.9372 10.3224 73.7793 9.83511 73.458 9.48118C73.1422 9.12725 72.7011 8.95028 72.1349 8.95028C71.7646 8.95028 71.4406 9.03196 71.1629 9.19531C70.8907 9.35322 70.681 9.58191 70.534 9.88139C70.387 10.1754 70.3108 10.5294 70.3053 10.9432Z" fill="#145DA0"/>
<path d="M86.6773 18.2287C85.3378 18.2287 84.1834 17.9728 83.2142 17.4609C82.2504 16.9437 81.5072 16.2031 80.9845 15.2393C80.4672 14.2701 80.2085 13.1103 80.2085 11.7599C80.2085 10.464 80.4699 9.33144 80.9926 8.36222C81.5154 7.39299 82.2532 6.63885 83.2061 6.09979C84.1589 5.56072 85.2833 5.29119 86.5793 5.29119C87.5267 5.29119 88.3843 5.43821 89.1521 5.73224C89.9198 6.02628 90.576 6.45372 91.1205 7.01456C91.665 7.56996 92.0843 8.24515 92.3783 9.04013C92.6723 9.83511 92.8193 10.7308 92.8193 11.7273V12.7727H81.6134V10.2898H88.6702C88.6647 9.9304 88.5722 9.61458 88.3925 9.34233C88.2182 9.06463 87.9814 8.84955 87.6819 8.69709C87.3879 8.53918 87.053 8.46023 86.6773 8.46023C86.3125 8.46023 85.9776 8.53918 85.6727 8.69709C85.3678 8.84955 85.1227 9.06191 84.9376 9.33416C84.7579 9.60642 84.6626 9.92495 84.6517 10.2898V12.9688C84.6517 13.3717 84.7361 13.7311 84.9049 14.0469C85.0737 14.3627 85.316 14.6104 85.6318 14.7901C85.9477 14.9698 86.3288 15.0597 86.7753 15.0597C87.0857 15.0597 87.3688 15.0161 87.6247 14.929C87.8861 14.8419 88.1093 14.7166 88.2945 14.5533C88.4796 14.3845 88.6157 14.183 88.7029 13.9489H92.8193C92.6778 14.8201 92.3429 15.5769 91.8147 16.2195C91.2865 16.8565 90.5869 17.352 89.7156 17.706C88.8499 18.0544 87.8371 18.2287 86.6773 18.2287Z" fill="#145DA0"/>
<path d="M6.5142 18H0.078125V1.27273H6.44886C8.16951 1.27273 9.65601 1.6076 10.9084 2.27734C12.1662 2.94164 13.1354 3.89998 13.8161 5.15234C14.5021 6.39927 14.8452 7.89394 14.8452 9.63636C14.8452 11.3788 14.5049 12.8762 13.8242 14.1286C13.1436 15.3755 12.1798 16.3338 10.9329 17.0036C9.68596 17.6679 8.21307 18 6.5142 18ZM4.61932 14.1449H6.35085C7.1785 14.1449 7.88364 14.0115 8.46626 13.7447C9.05433 13.4779 9.50083 13.0178 9.80575 12.3643C10.1161 11.7109 10.2713 10.8016 10.2713 9.63636C10.2713 8.47112 10.1134 7.56179 9.79759 6.90838C9.48722 6.25497 9.02983 5.79486 8.42543 5.52805C7.82647 5.26124 7.09138 5.12784 6.22017 5.12784H4.61932V14.1449Z" stroke="#145DA0" stroke-width="2" mask="url(#path-1-inside-1_361_59)"/>
<path d="M17.0116 18V5.45455H21.5202V18H17.0116ZM19.2659 4.14773C18.656 4.14773 18.1333 3.94626 17.6977 3.54332C17.2621 3.14039 17.0443 2.65578 17.0443 2.08949C17.0443 1.5232 17.2621 1.03859 17.6977 0.635653C18.1333 0.232718 18.656 0.03125 19.2659 0.03125C19.8812 0.03125 20.4039 0.232718 20.8341 0.635653C21.2697 1.03859 21.4875 1.5232 21.4875 2.08949C21.4875 2.65578 21.2697 3.14039 20.8341 3.54332C20.4039 3.94626 19.8812 4.14773 19.2659 4.14773Z" stroke="#145DA0" stroke-width="2" mask="url(#path-1-inside-1_361_59)"/>
<path d="M29.8613 22.9659C28.6035 22.9659 27.5254 22.7862 26.627 22.4268C25.734 22.0729 25.0397 21.5829 24.5442 20.9567C24.0542 20.3359 23.7792 19.6226 23.7193 18.8168H28.0645C28.108 19.0836 28.2169 19.2987 28.3912 19.462C28.5654 19.6254 28.7886 19.7424 29.0609 19.8132C29.3386 19.8894 29.649 19.9276 29.992 19.9276C30.5746 19.9276 31.0565 19.786 31.4377 19.5028C31.8243 19.2197 32.0176 18.7079 32.0176 17.9673V15.8438H31.8869C31.7235 16.2685 31.4731 16.6306 31.1355 16.93C30.7979 17.2241 30.3922 17.45 29.9185 17.608C29.4448 17.7604 28.9248 17.8366 28.3585 17.8366C27.4655 17.8366 26.6433 17.6297 25.8919 17.2159C25.1459 16.8021 24.5469 16.146 24.095 15.2475C23.6485 14.3491 23.4252 13.1757 23.4252 11.7273C23.4252 10.2135 23.6594 8.98295 24.1277 8.03551C24.6014 7.08807 25.2112 6.39382 25.9572 5.95277C26.7086 5.51172 27.4982 5.29119 28.3258 5.29119C28.9466 5.29119 29.4911 5.40009 29.9593 5.6179C30.4276 5.83026 30.8197 6.11612 31.1355 6.4755C31.4513 6.82943 31.6909 7.21875 31.8542 7.64347H31.9522V5.45455H36.4608V17.9673C36.4608 19.0291 36.1858 19.9303 35.6358 20.6708C35.0913 21.4168 34.3236 21.9858 33.3326 22.3778C32.3416 22.7699 31.1845 22.9659 29.8613 22.9659ZM30.0247 14.6349C30.4385 14.6349 30.7924 14.5206 31.0865 14.2919C31.3859 14.0578 31.6146 13.7256 31.7726 13.2955C31.9359 12.8598 32.0176 12.3371 32.0176 11.7273C32.0176 11.1065 31.9359 10.5756 31.7726 10.1346C31.6146 9.68809 31.3859 9.34777 31.0865 9.11364C30.7924 8.87405 30.4385 8.75426 30.0247 8.75426C29.6109 8.75426 29.2569 8.87405 28.9629 9.11364C28.6743 9.34777 28.4511 9.68809 28.2931 10.1346C28.1407 10.5756 28.0645 11.1065 28.0645 11.7273C28.0645 12.348 28.1407 12.8762 28.2931 13.3118C28.4511 13.742 28.6743 14.0714 28.9629 14.3001C29.2569 14.5233 29.6109 14.6349 30.0247 14.6349Z" stroke="#145DA0" stroke-width="2" mask="url(#path-1-inside-1_361_59)"/>
<path d="M38.7538 18V5.45455H43.2623V18H38.7538ZM41.0081 4.14773C40.3982 4.14773 39.8755 3.94626 39.4399 3.54332C39.0043 3.14039 38.7865 2.65578 38.7865 2.08949C38.7865 1.5232 39.0043 1.03859 39.4399 0.635653C39.8755 0.232718 40.3982 0.03125 41.0081 0.03125C41.6234 0.03125 42.1461 0.232718 42.5763 0.635653C43.0119 1.03859 43.2297 1.5232 43.2297 2.08949C43.2297 2.65578 43.0119 3.14039 42.5763 3.54332C42.1461 3.94626 41.6234 4.14773 41.0081 4.14773Z" stroke="#145DA0" stroke-width="2" mask="url(#path-1-inside-1_361_59)"/>
<path d="M45.4941 18V1.27273H57.2555V4.93182H50.0353V7.80682H56.5368V11.4659H50.0353V18H45.4941Z" stroke="#145DA0" stroke-width="2" mask="url(#path-1-inside-1_361_59)"/>
<path d="M58.9911 18V5.45455H63.4996V18H58.9911ZM61.2454 4.14773C60.6355 4.14773 60.1128 3.94626 59.6772 3.54332C59.2416 3.14039 59.0238 2.65578 59.0238 2.08949C59.0238 1.5232 59.2416 1.03859 59.6772 0.635653C60.1128 0.232718 60.6355 0.03125 61.2454 0.03125C61.8607 0.03125 62.3834 0.232718 62.8136 0.635653C63.2492 1.03859 63.467 1.5232 63.467 2.08949C63.467 2.65578 63.2492 3.14039 62.8136 3.54332C62.3834 3.94626 61.8607 4.14773 61.2454 4.14773Z" stroke="#145DA0" stroke-width="2" mask="url(#path-1-inside-1_361_59)"/>
<path d="M70.3053 10.9432V18H65.7968V5.45455H70.0766V7.83949H70.2073C70.4796 7.04451 70.9587 6.42105 71.6448 5.96911C72.3363 5.51716 73.1422 5.29119 74.0624 5.29119C74.95 5.29119 75.7204 5.49538 76.3738 5.90376C77.0327 6.3067 77.5418 6.8621 77.9012 7.56996C78.266 8.27782 78.4457 9.08641 78.4403 9.99574V18H73.9317V10.9432C73.9372 10.3224 73.7793 9.83511 73.458 9.48118C73.1422 9.12725 72.7011 8.95028 72.1349 8.95028C71.7646 8.95028 71.4406 9.03196 71.1629 9.19531C70.8907 9.35322 70.681 9.58191 70.534 9.88139C70.387 10.1754 70.3108 10.5294 70.3053 10.9432Z" stroke="#145DA0" stroke-width="2" mask="url(#path-1-inside-1_361_59)"/>
<path d="M86.6773 18.2287C85.3378 18.2287 84.1834 17.9728 83.2142 17.4609C82.2504 16.9437 81.5072 16.2031 80.9845 15.2393C80.4672 14.2701 80.2085 13.1103 80.2085 11.7599C80.2085 10.464 80.4699 9.33144 80.9926 8.36222C81.5154 7.39299 82.2532 6.63885 83.2061 6.09979C84.1589 5.56072 85.2833 5.29119 86.5793 5.29119C87.5267 5.29119 88.3843 5.43821 89.1521 5.73224C89.9198 6.02628 90.576 6.45372 91.1205 7.01456C91.665 7.56996 92.0843 8.24515 92.3783 9.04013C92.6723 9.83511 92.8193 10.7308 92.8193 11.7273V12.7727H81.6134V10.2898H88.6702C88.6647 9.9304 88.5722 9.61458 88.3925 9.34233C88.2182 9.06463 87.9814 8.84955 87.6819 8.69709C87.3879 8.53918 87.053 8.46023 86.6773 8.46023C86.3125 8.46023 85.9776 8.53918 85.6727 8.69709C85.3678 8.84955 85.1227 9.06191 84.9376 9.33416C84.7579 9.60642 84.6626 9.92495 84.6517 10.2898V12.9688C84.6517 13.3717 84.7361 13.7311 84.9049 14.0469C85.0737 14.3627 85.316 14.6104 85.6318 14.7901C85.9477 14.9698 86.3288 15.0597 86.7753 15.0597C87.0857 15.0597 87.3688 15.0161 87.6247 14.929C87.8861 14.8419 88.1093 14.7166 88.2945 14.5533C88.4796 14.3845 88.6157 14.183 88.7029 13.9489H92.8193C92.6778 14.8201 92.3429 15.5769 91.8147 16.2195C91.2865 16.8565 90.5869 17.352 89.7156 17.706C88.8499 18.0544 87.8371 18.2287 86.6773 18.2287Z" stroke="#145DA0" stroke-width="2" mask="url(#path-1-inside-1_361_59)"/>
</svg>
